g cube
v 0.500000 -0.500000 -0.500000
v 0.500000 -0.500000 0.500000
v -0.500000 -0.500000 0.500000
v -0.500000 -0.500000 -0.500000
v 0.500000 0.500000 -0.500000
v 0.500000 0.500000 0.500000
v -0.500000 0.500000 0.500000
v -0.500000 0.500000 -0.500000
vt 1.000000 1.000000
vt 0.000000 1.000000
vt 1.000000 0.000000
vt 1.000000 -2.000000
vt 1.000000 -1.000000
vt 0.000000 -2.000000
vt 1.000000 2.000000
vt -1.000000 1.000000
vt 0.000000 0.000000
vt 0.000000 -1.000000
vt 2.000000 1.000000
vt 2.000000 0.000000
vt 0.000000 2.000000
vt -1.000000 0.000000
vn 0.000000 -1.000000 0.000000
vn -0.000000 1.000000 0.000000
vn 1.000000 -0.000000 0.000000
vn -0.000000 -0.000000 1.000000
vn -1.000000 -0.000000 -0.000000
vn 0.000000 0.000000 -1.000000
vn 1.000000 0.000000 0.000000
s off
f 1/1/1 2/2/1 4/3/1
f 5/4/2 8/5/2 6/6/2
f 1/1/3 5/7/3 2/2/3
f 2/2/4 6/8/4 3/9/4
f 3/9/5 7/10/5 4/3/5
f 5/11/6 1/1/6 8/12/6
f 2/2/1 3/9/1 4/3/1
f 8/5/2 7/10/2 6/6/2
f 5/7/7 6/13/7 2/2/7
f 6/8/4 7/14/4 3/9/4
f 7/10/5 8/5/5 4/3/5
f 1/1/6 4/3/6 8/12/6
