# Blender v2.70 (sub 0) OBJ File: ''
# www.blender.org
o Circle.001_Circle.003
v 0.000000 0.000000 0.000000
v 0.000000 0.861787 -0.000000
v -0.081363 0.845228 -0.000000
v -0.159600 0.796187 -0.000000
v -0.231704 0.716550 -0.000000
v -0.294903 0.609375 -0.000000
v -0.346769 0.478783 -0.000000
v -0.385309 0.329792 -0.000000
v -0.409042 0.168126 -0.000000
v -0.417055 0.000000 -0.000000
v -0.409042 -0.168126 0.000000
v -0.385309 -0.329791 0.000000
v -0.346769 -0.478783 0.000000
v -0.294903 -0.609375 0.000000
v -0.231703 -0.716550 0.000000
v -0.159600 -0.796187 0.000000
v -0.081363 -0.845228 0.000000
v 0.000000 -0.861787 0.000000
v 0.081364 -0.845228 0.000000
v 0.159600 -0.796187 0.000000
v 0.231704 -0.716549 0.000000
v 0.294903 -0.609375 0.000000
v 0.346769 -0.478783 0.000000
v 0.385309 -0.329791 0.000000
v 0.409042 -0.168126 0.000000
v 0.417055 0.000001 -0.000000
v 0.409042 0.168127 -0.000000
v 0.385309 0.329792 -0.000000
v 0.346769 0.478784 -0.000000
v 0.294902 0.609376 -0.000000
v 0.231703 0.716550 -0.000000
v 0.159600 0.796188 -0.000000
v 0.081363 0.845228 -0.000000
vn 0.000000 0.000000 1.000000
s off
f 1//1 2//1 3//1
f 1//1 3//1 4//1
f 1//1 4//1 5//1
f 1//1 5//1 6//1
f 1//1 6//1 7//1
f 1//1 7//1 8//1
f 1//1 8//1 9//1
f 1//1 9//1 10//1
f 1//1 10//1 11//1
f 1//1 11//1 12//1
f 1//1 12//1 13//1
f 1//1 13//1 14//1
f 1//1 14//1 15//1
f 1//1 15//1 16//1
f 1//1 16//1 17//1
f 1//1 17//1 18//1
f 1//1 18//1 19//1
f 1//1 19//1 20//1
f 1//1 20//1 21//1
f 1//1 21//1 22//1
f 1//1 22//1 23//1
f 1//1 23//1 24//1
f 1//1 24//1 25//1
f 1//1 25//1 26//1
f 1//1 26//1 27//1
f 1//1 27//1 28//1
f 1//1 28//1 29//1
f 1//1 29//1 30//1
f 1//1 30//1 31//1
f 1//1 31//1 32//1
f 1//1 32//1 33//1
f 1//1 33//1 2//1
