# Blender v2.70 (sub 0) OBJ File: 'Door.blend'
# www.blender.org
o Cube
v -0.500000 0.000000 -0.100000
v 0.500000 0.000000 -0.100000
v -0.500000 2.000000 -0.100000
v 0.500000 2.000000 -0.100000
v -0.450000 0.040000 -0.100000
v 0.450000 0.040000 -0.100000
v -0.450000 1.900000 -0.100000
v 0.450000 1.900000 -0.100000
v -0.445993 0.048014 -0.100000
v 0.445993 0.048014 -0.100000
v -0.445993 1.891808 -0.100000
v 0.445993 1.891808 -0.100000
v -0.445993 0.048014 -0.029843
v 0.445993 0.048014 -0.029842
v -0.445993 1.891808 -0.029843
v 0.445993 1.891808 -0.029842
v 0.450000 1.900000 0.000000
v 0.500000 0.000000 0.000000
v 0.450000 0.040000 0.000000
v 0.500000 2.000000 0.000000
v -0.450000 0.040000 -0.000000
v -0.500000 2.000000 -0.000000
v -0.450000 1.900000 -0.000000
v -0.500000 0.000000 -0.000000
vt 0.983032 0.531476
vt 0.983032 0.576876
vt 0.527038 0.576877
vt 0.957985 0.467992
vt 0.957985 0.513392
vt 0.549386 0.513392
vt 0.981543 0.795322
vt 0.981543 0.840722
vt 0.527544 0.840723
vt 0.976914 0.656109
vt 0.976914 0.701509
vt 0.532176 0.701509
vt 0.522506 0.452233
vt 0.522506 0.406833
vt 0.976505 0.406832
vt 0.525690 0.774751
vt 0.525690 0.729351
vt 0.979690 0.729352
vt 0.468258 0.941125
vt 0.468258 0.027172
vt 0.029242 0.027172
vt 0.029242 0.941125
vt 0.743158 0.952185
vt 0.977144 0.952185
vt 0.977144 0.977816
vt 0.980765 0.855795
vt 0.980765 0.881425
vt 0.723828 0.881427
vt 0.723828 0.907335
vt 0.723828 0.881706
vt 0.980764 0.881703
vt 0.743158 0.951909
vt 0.743158 0.926278
vt 0.977144 0.926279
vt 0.511270 0.635546
vt 0.511270 0.590146
vt 0.982000 0.590146
vt 0.553946 0.393786
vt 0.553946 0.348386
vt 0.962545 0.348386
vt 0.472723 0.020114
vt 0.497592 0.000219
vt 0.497593 0.994973
vt 0.025090 0.020115
vt 0.025088 0.945236
vt 0.000219 0.994973
vt 0.000222 0.000220
vt 0.472724 0.945236
vt 0.527038 0.531476
vt 0.549386 0.467992
vt 0.527544 0.795323
vt 0.532176 0.656109
vt 0.976505 0.452232
vt 0.979690 0.774751
vt 0.743158 0.977816
vt 0.723828 0.855795
vt 0.980764 0.907335
vt 0.977144 0.951909
vt 0.982000 0.635547
vt 0.962545 0.393786
vn 1.000000 -0.000000 0.000000
vn 0.000000 1.000000 0.000000
vn -0.000000 -1.000000 0.000000
vn -1.000000 0.000000 -0.000000
vn 0.000000 -0.000000 -1.000000
vn -0.000000 0.000000 1.000000
vn 0.000000 1.000000 -0.000002
vn 0.000000 1.000000 0.000004
s off
f 7/1/1 23/2/1 21/3/1
f 5/4/2 21/5/2 19/6/2
f 3/7/2 22/8/2 20/9/2
f 4/10/1 20/11/1 18/12/1
f 2/13/3 18/14/3 24/15/3
f 1/16/4 24/17/4 22/18/4
f 9/19/5 11/20/5 12/21/5
f 16/20/6 15/21/6 13/22/6
f 12/23/7 11/24/7 15/25/7
f 12/26/1 16/27/1 14/28/1
f 9/29/4 13/30/4 15/31/4
f 10/32/3 14/33/3 13/34/3
f 6/35/4 19/36/4 17/37/4
f 8/38/3 17/39/3 23/40/3
f 5/41/5 1/42/5 3/43/5
f 6/44/5 8/45/5 4/46/5
f 2/47/5 1/42/5 5/41/5
f 7/48/5 3/43/5 4/46/5
f 5/49/1 7/1/1 21/3/1
f 6/50/2 5/4/2 19/6/2
f 4/51/2 3/7/2 20/9/2
f 2/52/1 4/10/1 18/12/1
f 1/53/3 2/13/3 24/15/3
f 3/54/4 1/16/4 22/18/4
f 10/22/5 9/19/5 12/21/5
f 14/19/6 16/20/6 13/22/6
f 16/55/8 12/23/8 15/25/8
f 10/56/1 12/26/1 14/28/1
f 11/57/4 9/29/4 15/31/4
f 9/58/3 10/32/3 13/34/3
f 8/59/4 6/35/4 17/37/4
f 7/60/3 8/38/3 23/40/3
f 7/48/5 5/41/5 3/43/5
f 2/47/5 6/44/5 4/46/5
f 6/44/5 2/47/5 5/41/5
f 8/45/5 7/48/5 4/46/5
